<svg width="238" height="100" viewBox="0 0 238 100" fill="none" xmlns="http://www.w3.org/2000/svg">
<g clip-path="url(#clip0_1710_27)">
<path fill-rule="evenodd" clip-rule="evenodd" d="M72.7074 0.563552C68.1626 0.989035 55.0701 3.31198 48.6275 4.83606C46.1951 5.41091 43.3203 5.96807 42.2391 6.07319C41.1579 6.17933 39.8312 6.53603 39.2907 6.86619C38.7499 7.19735 36.5789 7.78003 34.4657 8.16228C30.323 8.91105 10.0981 15.4525 4.27866 17.9258C0.634273 19.4754 -0.907813 22.2042 0.537953 24.5438C1.20629 25.6247 2.44861 25.5432 7.54369 24.0859C21.1109 20.2055 24.8015 19.2592 30.9365 18.0928C34.4501 17.4246 37.4487 16.9697 37.601 17.0817C37.7525 17.1937 38.1053 23.2045 38.3844 30.4386C38.6635 37.6729 39.1067 45.3609 39.3702 47.5228C40.41 56.0756 40.6507 58.6737 41.2307 67.5834C41.5608 72.6705 42.021 77.1405 42.252 77.5147C42.4838 77.8893 42.9123 80.8008 43.2053 83.9855C44.6167 99.3609 45.3095 100.806 50.7477 99.7196C52.4519 99.3786 54.441 98.6062 55.1685 98.0027C56.8766 96.5847 56.8551 90.1437 55.1193 83.3496C53.305 76.2491 50.9581 60.8906 49.644 47.5228C47.7115 27.8592 46.6601 15.2618 46.9282 14.9936C48.2826 13.6395 74.271 10.5275 87.2563 10.1639L103.176 9.7178V7.08139C103.176 4.96676 102.319 3.99198 98.8441 2.15543C95.131 0.192119 93.2361 -0.111517 85.5758 0.0299821C80.6605 0.121367 74.8695 0.361129 72.7074 0.563552ZM184.714 18.8249C178.514 20.6742 169.819 26.0473 165.166 30.9024C157.395 39.0102 153.992 54.3815 157.847 63.9574C159.674 68.4962 165.228 75.5279 166.987 75.5279C167.705 75.5279 168.807 76.1461 169.435 76.9027C170.741 78.4759 175.566 79.3769 186.534 80.0933C192.563 80.4874 195.658 80.156 200.938 78.5525C204.637 77.4292 208.479 76.5075 209.475 76.5038C210.473 76.5008 212.615 75.6193 214.237 74.5453C215.859 73.4713 217.765 72.5898 218.473 72.5869C219.626 72.581 224.074 69.6005 231.557 63.8209C236.543 59.9689 239.382 49.2601 237.322 42.0769C236.177 38.0866 228.393 30.5871 221.156 26.5042C209.002 19.6454 193.156 16.3064 184.714 18.8249ZM125.29 19.6346C120.695 20.0935 116.272 20.516 115.461 20.574C114.65 20.632 110.118 21.3149 105.389 22.0931C100.661 22.8714 95.1476 23.57 93.1397 23.6447C91.1309 23.7204 88.366 24.3679 86.9949 25.0833C85.6228 25.7987 83.7368 26.3863 82.8012 26.3902C81.8664 26.3931 79.2994 27.1174 77.0967 27.9979C73.6755 29.3665 73.1358 29.974 73.3913 32.174C73.7206 35.0088 73.9713 35.0542 83.1598 33.9496C89.5799 33.1783 89.8697 33.5732 89.8933 43.1383L89.9071 48.5791L83.7645 50.3263C80.3862 51.2863 75.6322 52.6257 73.1998 53.3008C69.8522 54.2314 68.5547 55.1646 67.8569 57.1488C67.35 58.5893 67.2033 60.0346 67.5308 60.3619C67.8579 60.689 72.4734 60.192 77.7876 59.2574C92.7182 56.6319 91.2851 55.8831 91.9918 66.6842C92.954 81.3834 93.808 86.0048 95.9153 87.911C97.4169 89.27 98.4049 89.441 100.496 88.7051C103.884 87.5142 104.674 83.678 102.903 77.0019C100.035 66.1861 97.7995 57.3147 97.7847 56.6987C97.7659 55.8831 103.157 55.0182 111.808 54.4475C121.221 53.8263 133.566 51.9308 135.205 50.8539C136.348 50.1043 136.244 49.7308 134.627 48.7402C128.721 45.1241 112.588 43.9617 102.365 46.4164C98.1935 47.4177 96.5571 47.4874 96.3339 46.6737C95.582 43.9244 93.8386 34.9716 93.8386 33.8611C93.8386 32.629 108.861 31.1373 134.627 29.8137C145.991 29.23 148.602 28.204 147.506 24.7531C146.027 20.0925 138.365 18.3277 125.29 19.6346ZM190.157 29.8767C192.59 30.6941 195.465 31.7928 196.546 32.3185C197.627 32.8442 201.165 34.3987 204.409 35.7743C216.169 40.7603 217.246 41.4158 220.982 45.8582L224.779 50.3713L222.457 52.1727C221.179 53.163 219.25 54.759 218.169 55.7169C211.315 61.7954 193.052 67.9488 184.123 67.1882C175.363 66.4424 173.336 65.4775 169.822 60.3807C166.151 55.0536 165.917 53.0129 168.116 45.4515C169.936 39.193 173.219 34.9823 179.273 31.1442C184.359 27.9193 184.34 27.9212 190.157 29.8767Z" fill="#222222"/>
</g>
<defs>
<clipPath id="clip0_1710_27">
<rect width="238" height="100" fill="white"/>
</clipPath>
</defs>
</svg>
