<svg width="886" height="373" viewBox="0 0 886 373" fill="none" xmlns="http://www.w3.org/2000/svg">
<g clip-path="url(#clip0_104_4)">
<path fill-rule="evenodd" clip-rule="evenodd" d="M270.667 2.10205C253.748 3.6891 205.009 12.3537 181.025 18.0385C171.97 20.1827 161.268 22.2609 157.243 22.653C153.218 23.0489 148.279 24.3794 146.267 25.6109C144.254 26.8461 136.172 29.0195 128.305 30.4453C112.883 33.2382 37.5921 57.6377 15.9281 66.8631C2.3612 72.6432 -3.37951 82.8215 2.00263 91.5484C4.49064 95.5802 9.1154 95.276 28.0828 89.8405C78.5893 75.3664 92.3282 71.8368 115.167 67.4862C128.247 64.9938 139.41 63.2968 139.977 63.7147C140.541 64.1325 141.854 86.5527 142.893 113.536C143.932 140.52 145.582 169.196 146.563 177.26C150.434 209.162 151.33 218.853 153.489 252.086C154.718 271.061 156.431 287.734 157.291 289.13C158.154 290.527 159.749 301.387 160.84 313.266C166.094 370.616 168.673 376.007 188.918 371.954C195.262 370.682 202.667 367.801 205.375 365.55C211.734 360.261 211.654 336.236 205.192 310.894C198.438 284.409 189.701 227.122 184.809 177.26C177.615 103.915 173.701 56.9266 174.699 55.926C179.741 50.8753 276.488 39.2675 324.828 37.9114L384.091 36.2474V26.4136C384.091 18.526 380.9 14.8901 367.966 8.03974C354.143 0.716604 347.089 -0.41596 318.572 0.111833C300.274 0.4527 278.716 1.34701 270.667 2.10205ZM687.634 70.2168C664.554 77.1147 632.185 97.1563 614.86 115.266C585.934 145.508 573.263 202.843 587.617 238.561C594.418 255.491 615.094 281.719 621.64 281.719C624.315 281.719 628.416 284.025 630.754 286.847C635.617 292.715 653.578 296.076 694.407 298.748C716.854 300.218 728.375 298.982 748.031 293.001C761.799 288.811 776.101 285.373 779.811 285.359C783.525 285.348 791.501 282.06 797.538 278.054C803.575 274.048 810.67 270.76 813.308 270.749C817.6 270.727 834.156 259.61 862.014 238.052C880.575 223.684 891.146 183.74 883.477 156.947C879.214 142.063 850.236 114.09 823.296 98.8606C778.048 73.2773 719.06 60.8228 687.634 70.2168ZM466.414 73.2369C449.309 74.9486 432.844 76.5247 429.826 76.7409C426.807 76.9572 409.936 79.5045 392.33 82.4074C374.728 85.3102 354.205 87.9162 346.73 88.1947C339.252 88.477 328.959 90.8924 323.855 93.5607C318.747 96.229 311.726 98.4208 308.243 98.4354C304.763 98.4464 295.207 101.148 287.007 104.432C274.271 109.537 272.262 111.803 273.213 120.009C274.439 130.583 275.372 130.752 309.578 126.632C333.478 123.755 334.557 125.228 334.645 160.906L334.696 181.2L311.829 187.717C299.253 191.298 281.555 196.294 272.5 198.812C260.038 202.283 255.208 205.764 252.61 213.165C250.723 218.538 250.177 223.929 251.396 225.15C252.614 226.37 269.796 224.516 289.579 221.03C345.161 211.237 339.826 208.444 342.457 248.732C346.039 303.56 349.218 320.798 357.063 327.908C362.653 332.977 366.331 333.615 374.117 330.87C386.729 326.428 389.667 312.119 383.077 287.217C372.401 246.874 364.077 213.784 364.022 211.486C363.952 208.444 384.021 205.218 416.226 203.089C451.267 200.772 497.225 193.702 503.328 189.685C507.58 186.889 507.195 185.496 501.173 181.801C479.187 168.313 419.131 163.977 381.072 173.133C365.544 176.868 359.452 177.128 358.621 174.093C355.822 163.838 349.332 130.444 349.332 126.302C349.332 121.706 405.257 116.142 501.173 111.205C543.48 109.028 553.198 105.201 549.118 92.3292C543.612 74.9449 515.091 68.3622 466.414 73.2369ZM707.897 111.44C716.953 114.489 727.655 118.587 731.679 120.548C735.704 122.509 748.876 128.307 760.95 133.438C804.731 152.036 808.738 154.481 822.649 171.051L836.783 187.885L828.137 194.604C823.381 198.298 816.198 204.251 812.174 207.824C786.661 230.497 718.672 253.449 685.432 250.612C652.821 247.83 645.276 244.231 632.196 225.22C618.53 205.35 617.659 197.738 625.844 169.534C632.62 146.19 644.841 130.484 667.379 116.168C686.313 104.139 686.24 104.146 707.897 111.44Z" fill="#D63031"/>
</g>
<defs>
<clipPath id="clip0_104_4">
<rect width="886" height="373" fill="white"/>
</clipPath>
</defs>
</svg>
